<svg width="49" height="65" viewBox="0 0 49 65" fill="none" xmlns="http://www.w3.org/2000/svg">
    <path d="M24.1588 15.2812C22.4004 15.2812 20.6814 15.8027 19.2193 16.7796C17.7573 17.7565 16.6177 19.1451 15.9448 20.7697C15.2719 22.3942 15.0958 24.1819 15.4388 25.9065C15.7819 27.6312 16.6287 29.2153 17.8721 30.4587C19.1155 31.7021 20.6996 32.5489 22.4243 32.892C24.1489 33.235 25.9366 33.0589 27.5611 32.386C29.1857 31.7131 30.5743 30.5735 31.5512 29.1115C32.5281 27.6494 33.0495 25.9304 33.0495 24.172C33.0469 21.8149 32.1093 19.555 30.4425 17.8883C28.7758 16.2215 26.5159 15.2839 24.1588 15.2812ZM24.1588 28.6174C23.2796 28.6174 22.4201 28.3567 21.6891 27.8682C20.958 27.3798 20.3882 26.6855 20.0518 25.8732C19.7153 25.0609 19.6273 24.1671 19.7988 23.3048C19.9703 22.4424 20.3937 21.6504 21.0154 21.0287C21.6371 20.407 22.4292 19.9836 23.2915 19.8121C24.1538 19.6405 25.0477 19.7286 25.86 20.065C26.6722 20.4015 27.3665 20.9713 27.855 21.7023C28.3434 22.4333 28.6042 23.2928 28.6042 24.172C28.6028 25.3506 28.134 26.4805 27.3006 27.3139C26.4673 28.1473 25.3373 28.616 24.1588 28.6174Z" fill="#904F69"/>
    <path d="M41.2432 7.07443C37.0191 2.85138 31.3804 0.342709 25.4154 0.0326063C19.4504 -0.277496 13.5819 1.63295 8.94266 5.39523C4.3034 9.1575 1.2222 14.5049 0.293742 20.4054C-0.63472 26.3058 0.655375 32.341 3.91504 37.3463L20.7112 63.1313C21.085 63.7051 21.5961 64.1765 22.1981 64.5028C22.8001 64.8291 23.4741 65 24.1588 65C24.8436 65 25.5176 64.8291 26.1196 64.5028C26.7216 64.1765 27.2327 63.7051 27.6064 63.1313L44.4032 37.3463C47.4278 32.7032 48.7644 27.1616 48.1891 21.6502C47.6138 16.1389 45.1615 10.9927 41.2432 7.07443ZM40.6785 34.9198L24.1589 60.2793L7.63916 34.9198C2.58253 27.1572 3.66707 16.7688 10.2179 10.2177C12.0486 8.38694 14.2221 6.93468 16.6141 5.94386C19.0061 4.95304 21.5698 4.44307 24.1589 4.44307C26.748 4.44307 29.3117 4.95304 31.7037 5.94386C34.0957 6.93468 36.2692 8.38694 38.0999 10.2177C44.6507 16.7688 45.7351 27.1572 40.6785 34.9198Z" fill="#904F69"/>
</svg>
