<svg width="40" height="64" viewBox="0 0 40 64" fill="none" xmlns="http://www.w3.org/2000/svg">
    <path fill-rule="evenodd" clip-rule="evenodd" d="M32 4H8C6.93913 4 5.92172 4.42143 5.17157 5.17157C4.42143 5.92172 4 6.93913 4 8V56C4 57.0609 4.42143 58.0783 5.17157 58.8284C5.92172 59.5786 6.93913 60 8 60H32C33.0609 60 34.0783 59.5786 34.8284 58.8284C35.5786 58.0783 36 57.0609 36 56V8C36 6.93913 35.5786 5.92172 34.8284 5.17157C34.0783 4.42143 33.0609 4 32 4ZM8 0C5.87827 0 3.84344 0.842855 2.34315 2.34315C0.842854 3.84344 0 5.87827 0 8V56C0 58.1217 0.842854 60.1566 2.34315 61.6569C3.84344 63.1571 5.87827 64 8 64H32C34.1217 64 36.1566 63.1571 37.6569 61.6569C39.1571 60.1566 40 58.1217 40 56V8C40 5.87827 39.1571 3.84344 37.6569 2.34315C36.1566 0.842855 34.1217 0 32 0L8 0Z" fill="#904F69"/>
    <path fill-rule="evenodd" clip-rule="evenodd" d="M20 56C21.0609 56 22.0783 55.5786 22.8284 54.8284C23.5786 54.0783 24 53.0609 24 52C24 50.9391 23.5786 49.9217 22.8284 49.1716C22.0783 48.4214 21.0609 48 20 48C18.9391 48 17.9217 48.4214 17.1716 49.1716C16.4214 49.9217 16 50.9391 16 52C16 53.0609 16.4214 54.0783 17.1716 54.8284C17.9217 55.5786 18.9391 56 20 56Z" fill="#904F69"/>
</svg>
