<svg width="66" height="66" viewBox="0 0 66 66" fill="none" xmlns="http://www.w3.org/2000/svg">
    <mask id="mask0_6001_746" style="mask-type:luminance" maskUnits="userSpaceOnUse" x="0" y="0" width="66" height="66">
        <path d="M65.0601 0.764648H0V65.8263H65.0601V0.764648Z" fill="white"/>
    </mask>
    <g mask="url(#mask0_6001_746)">
        <path d="M32.5283 65.8278C26.092 65.8293 19.7999 63.9219 14.4478 60.3469C9.09568 56.7719 4.92406 51.69 2.46059 45.7438C-0.00288252 39.7976 -0.647524 33.2544 0.608203 26.9419C1.86393 20.6293 4.96361 14.8309 9.51516 10.2802C14.0667 5.72955 19.8657 2.63096 26.1785 1.37642C32.4913 0.121879 39.0343 0.76775 44.98 3.23234C50.9257 5.69692 56.0069 9.8695 59.5809 15.2223C63.1549 20.575 65.0611 26.8675 65.0583 33.3038C65.0507 41.9294 61.6214 50.1996 55.523 56.2997C49.4247 62.3998 41.1554 65.8314 32.5298 65.8415M32.5298 4.02749C26.738 4.02719 21.0761 5.74447 16.2603 8.96215C11.4445 12.1798 7.69107 16.7534 5.4747 22.1044C3.25833 27.4554 2.67858 33.3434 3.80877 39.0239C4.93896 44.7044 7.72833 49.9222 11.8241 54.0173C15.9199 58.1124 21.1381 60.901 26.8187 62.0303C32.4994 63.1596 38.3874 62.5789 43.738 60.3617C49.0887 58.1445 53.6617 54.3904 56.8786 49.574C60.0955 44.7577 61.8119 39.0956 61.8107 33.3038C61.8042 25.5389 58.7173 18.0938 53.2274 12.6024C47.7375 7.11111 40.2932 4.02224 32.5283 4.01374" fill="#511F33"/>
        <path d="M27.8204 51.977H35.3423V33.1372H40.5911L41.1517 26.8298H35.3469V23.2369C35.3469 21.749 35.6524 21.1609 37.0853 21.1609H41.1517V14.6152H35.9426C30.344 14.6152 27.8204 17.0807 27.8204 21.7949V26.8237H23.9067V33.2106H27.8204V51.977Z" fill="#511F33"/>
    </g>
</svg>
