<svg width="62" height="62" viewBox="0 0 62 62" fill="none" xmlns="http://www.w3.org/2000/svg">
    <mask id="mask0_6001_737" style="mask-type:luminance" maskUnits="userSpaceOnUse" x="0" y="0" width="62" height="62">
        <path d="M61.5611 0.627991H0.364258V61.8264H61.5611V0.627991Z" fill="white"/>
    </mask>
    <g mask="url(#mask0_6001_737)">
        <path d="M30.9621 61.8264C24.9101 61.8267 18.9939 60.0323 13.9616 56.6702C8.92943 53.3081 5.00722 48.5293 2.69101 42.9381C0.374791 37.3468 -0.231394 31.1943 0.949111 25.2585C2.12961 19.3228 5.04379 13.8704 9.3231 9.59084C13.6024 5.31131 19.0547 2.39687 24.9904 1.21607C30.9261 0.0352706 37.0786 0.641148 42.67 2.95708C48.2614 5.27302 53.0404 9.19499 56.4027 14.227C59.7651 19.2591 61.5597 25.1752 61.5597 31.2272C61.5508 39.3396 58.3244 47.1172 52.5882 52.8537C46.8519 58.5902 39.0745 61.8171 30.9621 61.8264ZM30.9621 3.68319C25.5143 3.68289 20.1888 5.29806 15.659 8.32445C11.1292 11.3508 7.5986 15.6525 5.51363 20.6855C3.42865 25.7185 2.88297 31.2567 3.94559 36.5998C5.00821 41.943 7.6314 46.851 11.4834 50.7032C15.3355 54.5555 20.2433 57.1789 25.5864 58.2418C30.9295 59.3048 36.4677 58.7594 41.5008 56.6747C46.5339 54.59 50.8358 51.0596 53.8624 46.53C56.8891 42.0004 58.5046 36.675 58.5046 31.2272C58.4965 23.9248 55.5921 16.9238 50.4287 11.7601C45.2653 6.59641 38.2644 3.69168 30.9621 3.68319Z" fill="#511F33"/>
        <path d="M30.9623 18.1586C35.2182 18.1586 35.7223 18.1754 37.4027 18.2517C38.4137 18.2632 39.4151 18.4487 40.3631 18.8001C41.0507 19.0654 41.675 19.4717 42.196 19.9929C42.7169 20.5141 43.1229 21.1386 43.3878 21.8263C43.7392 22.7738 43.9252 23.7747 43.9377 24.7853C44.0141 26.4656 44.0309 26.9697 44.0309 31.2271C44.0309 35.4845 44.0141 35.9871 43.9377 37.6674C43.9252 38.678 43.7392 39.6788 43.3878 40.6264C43.1229 41.314 42.7169 41.9386 42.196 42.4598C41.675 42.981 41.0507 43.3873 40.3631 43.6525C39.4151 44.004 38.4137 44.1895 37.4027 44.2009C35.7223 44.2773 35.2182 44.2941 30.9623 44.2941C26.7065 44.2941 26.2024 44.2773 24.522 44.2009C23.511 44.1895 22.5096 44.004 21.5615 43.6525C20.874 43.3873 20.2497 42.981 19.7287 42.4598C19.2078 41.9386 18.8018 41.314 18.5369 40.6264C18.1855 39.6788 17.9994 38.678 17.987 37.6674C17.9106 35.9871 17.8953 35.483 17.8953 31.2271C17.8953 26.9712 17.9106 26.4656 17.987 24.7853C17.9994 23.7747 18.1855 22.7738 18.5369 21.8263C18.8018 21.1386 19.2078 20.5141 19.7287 19.9929C20.2497 19.4717 20.874 19.0654 21.5615 18.8001C22.5096 18.4487 23.511 18.2632 24.522 18.2517C26.2024 18.1754 26.7065 18.1586 30.9623 18.1586ZM30.9623 15.2867C26.6331 15.2867 26.0908 15.305 24.3937 15.3829C23.0712 15.4088 21.7628 15.6594 20.5243 16.1238C19.4641 16.5332 18.5013 17.1601 17.6981 17.9641C16.8949 18.7682 16.2689 19.7315 15.8606 20.7921C15.3954 22.0299 15.1448 23.3379 15.1197 24.66C15.0418 26.3602 15.0234 26.904 15.0234 31.2286C15.0234 35.5532 15.0418 36.1001 15.1197 37.7973C15.145 39.1198 15.3955 40.4283 15.8606 41.6667C16.2696 42.7255 16.8956 43.6871 17.6982 44.4897C18.5008 45.2923 19.4624 45.9183 20.5212 46.3274C21.7597 46.7918 23.0682 47.0423 24.3906 47.0682C26.0908 47.1461 26.6331 47.1645 30.9593 47.1645C35.2854 47.1645 35.8308 47.1461 37.5279 47.0682C38.8504 47.0423 40.1588 46.7918 41.3973 46.3274C42.4561 45.918 43.4178 45.2919 44.2206 44.4894C45.0234 43.6868 45.6498 42.7254 46.0595 41.6667C46.5231 40.4279 46.7736 39.1196 46.8004 37.7973C46.8768 36.0971 46.8951 35.5532 46.8951 31.2286C46.8951 26.904 46.8768 26.3556 46.8004 24.66C46.7737 23.3381 46.5232 22.0303 46.0595 20.7921C45.6501 19.7331 45.0239 18.7713 44.2211 17.9684C43.4182 17.1655 42.4564 16.5393 41.3973 16.1299C40.1588 15.6655 38.8504 15.4149 37.5279 15.389C35.8277 15.3111 35.2854 15.2928 30.9593 15.2928" fill="#511F33"/>
        <path d="M30.9617 23.0424C29.3429 23.0424 27.7604 23.5224 26.4144 24.4218C25.0685 25.3211 24.0194 26.5994 23.3999 28.095C22.7804 29.5906 22.6183 31.2363 22.9341 32.824C23.2499 34.4117 24.0295 35.8701 25.1741 37.0147C26.3188 38.1594 27.7772 38.939 29.3649 39.2548C30.9526 39.5706 32.5983 39.4085 34.0939 38.789C35.5895 38.1695 36.8678 37.1204 37.7671 35.7744C38.6665 34.4285 39.1465 32.846 39.1465 31.2272C39.1465 30.1523 38.9348 29.088 38.5235 28.095C38.1122 27.102 37.5093 26.1997 36.7493 25.4396C35.9892 24.6796 35.0869 24.0767 34.0939 23.6654C33.1009 23.2541 32.0365 23.0424 30.9617 23.0424ZM30.9617 36.5402C29.9109 36.5402 28.8837 36.2286 28.01 35.6448C27.1363 35.061 26.4553 34.2312 26.0532 33.2604C25.651 32.2896 25.5458 31.2213 25.7508 30.1907C25.9558 29.1601 26.4618 28.2134 27.2049 27.4704C27.9479 26.7273 28.8946 26.2213 29.9252 26.0163C30.9558 25.8113 32.0241 25.9165 32.9949 26.3187C33.9657 26.7208 34.7955 27.4018 35.3793 28.2755C35.9631 29.1492 36.2747 30.1764 36.2747 31.2272C36.2747 32.6363 35.7149 33.9877 34.7185 34.984C33.7222 35.9804 32.3708 36.5402 30.9617 36.5402Z" fill="#511F33"/>
        <path d="M41.3847 22.7185C41.3847 23.0967 41.2725 23.4664 41.0624 23.7809C40.8524 24.0954 40.5538 24.3405 40.2044 24.4853C39.855 24.6301 39.4705 24.6681 39.0996 24.5944C38.7286 24.5207 38.3878 24.3388 38.1203 24.0714C37.8527 23.8041 37.6705 23.4635 37.5965 23.0926C37.5225 22.7217 37.5602 22.3372 37.7047 21.9877C37.8492 21.6382 38.0941 21.3394 38.4085 21.129C38.7228 20.9187 39.0924 20.8063 39.4706 20.806C39.9777 20.8064 40.4639 21.008 40.8225 21.3666C41.1811 21.7252 41.3827 22.2114 41.3831 22.7185" fill="#511F33"/>
    </g>
</svg>
