<svg width="314" height="207" viewBox="0 0 314 207" fill="none" xmlns="http://www.w3.org/2000/svg">
    <g clip-path="url(#clip0_5001_1046)">
        <path d="M39.68 155.56H14.85C7.11 155.56 3.87 151.75 3.87 144V73.77L0 66.66H23.58L19.71 73.77V137.78C19.71 141.21 21.33 143.49 24.83 143.49H30.2C33.69 143.49 35.32 141.2 35.32 137.78V73.77L31.45 66.66H54.54L50.67 73.77V144C50.67 151.75 47.55 155.56 39.69 155.56H39.68Z" fill="white"/>
        <path d="M66.13 66.6601H92.33L90.71 73.7701L103.44 119.87V73.7701L99.57 66.6601H121.78L117.91 73.7701V155.56H102.19L84.72 94.7201V148.44L88.46 155.55H66.12L69.99 148.44V73.7601L66.12 66.6501L66.13 66.6601Z" fill="white"/>
        <path d="M262.39 66.66H302.57C310.31 66.66 313.43 70.47 313.43 78.22V144.01C313.43 151.76 310.31 155.57 302.57 155.57H262.39L266.26 148.46V73.78L262.39 66.67V66.66ZM290.96 78.73H281.98V143.5H290.96C295.58 143.5 297.7 140.45 297.7 136.01V86.22C297.7 81.78 295.58 78.73 290.96 78.73Z" fill="white"/>
        <path d="M221.47 143.5V117.21H234.44L241.68 120.51V101.71L234.44 105.02H221.47V89.54H205.74V148.45L201.88 155.56H248.92V136.64L235.82 143.5H221.47Z" fill="white"/>
        <path d="M201.88 66.66L205.74 73.77V78.81H221.47V78.73H235.82L248.92 85.58V66.66H201.88Z" fill="white"/>
        <path d="M15.26 28C15.26 26.6 14.54 25.66 13.16 25.66H10.71C9.28 25.66 8.61 26.6 8.61 28V49.85C8.61 51.25 9.27 52.19 10.71 52.19H13.16C14.54 52.19 15.26 51.25 15.26 49.85V43.09L21.5 39.61V52.41C21.5 55.58 20.22 57.14 17 57.14H6.62C3.45 57.14 2.17 55.58 2.17 52.41V25.46C2.17 22.29 3.45 20.73 6.62 20.73H17C20.22 20.73 21.5 22.29 21.5 25.46V33.52L15.26 37.01V28.01V28Z" fill="white"/>
        <path d="M51.1 20.7101C54.32 20.7101 55.6 22.2701 55.6 25.4401V52.3901C55.6 55.5601 54.32 57.1201 51.1 57.1201H40.52C37.35 57.1201 36.07 55.5601 36.07 52.3901V25.4401C36.07 22.2701 37.35 20.7101 40.52 20.7101H51.1ZM47.06 25.6501H44.61C43.18 25.6501 42.51 26.5901 42.51 27.9901V49.8401C42.51 51.2401 43.17 52.1801 44.61 52.1801H47.06C48.44 52.1801 49.16 51.2401 49.16 49.8401V27.9901C49.16 26.5901 48.44 25.6501 47.06 25.6501Z" fill="white"/>
        <path d="M70.98 54.2201V23.6301L69.4 20.7201H79.06L77.42 23.6301V52.1901H82.28L87.7 49.3801V57.1301H69.4L70.98 54.2201Z" fill="white"/>
        <path d="M115.65 57.1301H105.48C102.31 57.1301 100.98 55.5701 100.98 52.4001V23.6301L99.4 20.7201H109.06L107.47 23.6301V49.8501C107.47 51.2501 108.14 52.1901 109.57 52.1901H111.77C113.2 52.1901 113.87 51.2501 113.87 49.8501V23.6301L112.29 20.7201H121.75L120.17 23.6301V52.4001C120.17 55.5701 118.89 57.1301 115.67 57.1301H115.65Z" fill="white"/>
        <path d="M152.36 57.1301H147.2L141.78 29.5101V54.2201L143.31 57.1301H134.16L135.74 54.2201V23.6301L134.16 20.7201H147.19L146.37 23.6301L149.95 44.2301L153.53 23.6301L152.76 20.7201H165.95L164.31 23.6301V54.2201L165.95 57.1301H156.29L157.88 54.2201V29.6601L152.36 57.1301Z" fill="white"/>
        <path d="M209.5 38.6601C212.46 38.8701 213.95 40.3301 213.95 43.6501V52.3901C213.95 55.5601 212.67 57.1201 209.5 57.1201H192.84L194.43 54.2101V23.6201L192.84 20.7101H209.15C212.32 20.7101 213.65 22.2701 213.65 25.4401V33.6601C213.65 36.8901 212.27 38.3401 209.51 38.6501L209.5 38.6601ZM200.86 36.2101H204.59C206.43 36.2101 207.3 34.9601 207.3 33.1401V28.7201C207.3 26.9001 206.43 25.6501 204.59 25.6501H200.86V36.2101ZM207.51 44.1701C207.51 42.3501 206.64 41.1001 204.75 41.1001H200.86V52.1801H204.75C206.64 52.1801 207.51 50.9301 207.51 49.1101V44.1701Z" fill="white"/>
        <path d="M243.34 57.1301H233.17C230 57.1301 228.67 55.5701 228.67 52.4001V23.6301L227.09 20.7201H236.75L235.16 23.6301V49.8501C235.16 51.2501 235.83 52.1901 237.26 52.1901H239.46C240.89 52.1901 241.56 51.2501 241.56 49.8501V23.6301L239.98 20.7201H249.44L247.86 23.6301V52.4001C247.86 55.5701 246.58 57.1301 243.36 57.1301H243.34Z" fill="white"/>
        <path d="M273.19 25.6601H271.25C269.82 25.6601 269.15 26.6001 269.15 28.0001V30.9601C269.15 32.8801 269.56 33.6101 271.19 34.5001L279.42 39.0801C281.21 40.0701 281.98 41.6301 281.98 43.7101V52.4001C281.98 55.5701 280.7 57.1301 277.48 57.1301H267C263.78 57.1301 262.55 55.5701 262.55 52.4001V42.1501L268.79 45.5801V49.8501C268.79 51.2501 269.51 52.1901 270.89 52.1901H273.44C274.82 52.1901 275.49 51.2501 275.49 49.8501V46.5201C275.49 44.6001 275.08 43.8701 273.5 42.9801L265.22 38.4501C263.43 37.4601 262.72 35.9001 262.72 33.8201V25.4401C262.72 22.2701 264 20.7101 267.17 20.7101H277.04C280.26 20.7101 281.54 22.2701 281.54 25.4401V35.0101L275.3 31.5801V27.9901C275.3 26.5901 274.64 25.6501 273.2 25.6501L273.19 25.6601Z" fill="white"/>
        <path d="M137.87 78.81H153.59V73.77L157.59 66.66H134L137.87 73.77V78.81Z" fill="white"/>
        <path d="M153.59 89.54H137.87V148.45L134 155.56H157.59L153.59 148.45V89.54Z" fill="white"/>
        <path d="M179.03 17.92H181.65C181.66 13.88 184.3 7.23005 184.3 7.23005C184.32 1.28005 179.09 0.550049 179.09 0.550049C179.09 0.550049 173.85 1.25005 173.83 7.20005C173.83 7.20005 176.43 13.87 176.41 17.92H179.03Z" fill="white"/>
        <path d="M179.05 20.41H181.68C181.68 20.41 183.84 50.07 183 78.81H178.87L174.74 78.78C174.08 50.03 176.43 20.39 176.43 20.39H179.06L179.05 20.41Z" fill="white"/>
        <path d="M170.12 107.72L174.22 107.84L174.76 206.86H182.92L183.56 107.87L187.66 107.78C188.54 107.76 189.32 107.2 189.63 106.38C189.86 105.77 189.79 105.09 189.46 104.53C186.38 99.2601 185.73 89.59 185.73 89.59L178.98 89.57H178.92L172.17 89.55C172.17 89.55 171.46 99.2101 168.34 104.46C168.01 105.02 167.93 105.7 168.16 106.31C168.46 107.14 169.24 107.7 170.12 107.72Z" fill="white"/>
        <path d="M226.79 80.61C225.99 80.61 225.26 80.88 224.66 81.32L134.54 81.19C133.98 80.83 133.32 80.61 132.61 80.61C130.64 80.61 129.04 82.2001 129.03 84.1701C129.03 86.1401 130.62 87.74 132.59 87.75C133.39 87.75 134.11 87.49 134.71 87.05L224.86 87.18C225.41 87.54 226.07 87.75 226.78 87.75C228.75 87.75 230.35 86.16 230.36 84.19C230.36 82.22 228.77 80.62 226.8 80.61H226.79Z" fill="white"/>
        <path d="M14.98 181.5H4.95V189.85H2.63V171.06H15.51V173.3H4.95V179.27H14.99V181.5H14.98Z" fill="white"/>
        <path d="M38.1 189.85H24.99V171.06H37.97V173.27H27.31V179.27H37.62V181.5H27.31V187.63H38.1V189.84V189.85Z" fill="white"/>
        <path d="M63.7 189.86H61.6L50.44 175.09V189.84H48.11V171.03H50.21L61.38 185.8V171.05H63.7V189.86Z" fill="white"/>
        <path d="M82.75 170.77C84.37 170.77 85.85 171.12 87.2 171.81C88.55 172.5 89.58 173.45 90.31 174.66L88.37 175.99C87.75 175.06 86.96 174.33 85.99 173.82C85.02 173.31 83.94 173.04 82.75 173.04C80.69 173.04 78.99 173.73 77.64 175.11C76.29 176.49 75.61 178.27 75.61 180.45C75.61 182.63 76.29 184.41 77.64 185.79C78.99 187.17 80.69 187.86 82.75 187.86C83.93 187.86 85 187.6 85.97 187.09C86.94 186.58 87.73 185.85 88.35 184.92L90.25 186.33C89.48 187.51 88.43 188.44 87.1 189.12C85.78 189.8 84.32 190.13 82.74 190.13C81.38 190.13 80.1 189.89 78.92 189.41C77.74 188.93 76.72 188.26 75.88 187.42C75.04 186.58 74.38 185.55 73.9 184.35C73.42 183.15 73.18 181.85 73.18 180.46C73.18 179.07 73.42 177.78 73.9 176.57C74.38 175.37 75.04 174.34 75.88 173.5C76.72 172.65 77.73 171.99 78.92 171.51C80.11 171.03 81.38 170.79 82.74 170.79L82.75 170.77Z" fill="white"/>
        <path d="M102.01 189.85H99.69V171.06H102.01V189.85Z" fill="white"/>
        <path d="M128.13 189.86H126.03L114.87 175.09V189.84H112.54V171.03H114.64L125.81 185.8V171.05H128.13V189.86Z" fill="white"/>
        <path d="M147.19 170.77C148.65 170.77 149.99 171.04 151.21 171.59C152.43 172.14 153.47 172.9 154.34 173.89L152.64 175.57C151.99 174.77 151.2 174.15 150.26 173.71C149.32 173.27 148.3 173.05 147.19 173.05C145.13 173.05 143.43 173.74 142.08 175.12C140.73 176.5 140.05 178.28 140.05 180.46C140.05 181.54 140.23 182.55 140.6 183.47C140.97 184.4 141.46 185.18 142.08 185.82C142.7 186.46 143.45 186.96 144.31 187.32C145.17 187.68 146.09 187.86 147.08 187.86C148.95 187.86 150.45 187.34 151.58 186.3C152.71 185.26 153.36 183.81 153.53 181.96H147.99V179.76H156.05C156.07 180.03 156.08 180.23 156.08 180.35C156.08 182.18 155.72 183.82 155.01 185.3C154.3 186.77 153.25 187.94 151.88 188.82C150.5 189.69 148.91 190.13 147.09 190.13C146.12 190.13 145.18 189.99 144.25 189.72C143.33 189.45 142.47 189.04 141.66 188.49C140.86 187.94 140.16 187.28 139.56 186.52C138.96 185.76 138.49 184.86 138.14 183.82C137.8 182.78 137.63 181.66 137.63 180.47C137.63 179.08 137.87 177.79 138.36 176.58C138.84 175.38 139.51 174.35 140.35 173.51C141.19 172.66 142.21 172 143.39 171.52C144.57 171.04 145.84 170.8 147.2 170.8L147.19 170.77Z" fill="white"/>
        <path d="M213.57 170.77C215.19 170.77 216.67 171.12 218.02 171.81C219.37 172.5 220.4 173.45 221.13 174.66L219.19 175.99C218.57 175.06 217.78 174.33 216.81 173.82C215.84 173.31 214.76 173.04 213.57 173.04C211.51 173.04 209.81 173.73 208.46 175.11C207.11 176.49 206.43 178.27 206.43 180.45C206.43 182.63 207.11 184.41 208.46 185.79C209.81 187.17 211.51 187.86 213.57 187.86C214.75 187.86 215.82 187.6 216.79 187.09C217.76 186.58 218.55 185.85 219.17 184.92L221.07 186.33C220.3 187.51 219.25 188.44 217.92 189.12C216.6 189.8 215.14 190.13 213.56 190.13C212.2 190.13 210.92 189.89 209.74 189.41C208.56 188.93 207.54 188.26 206.7 187.42C205.86 186.58 205.2 185.55 204.72 184.35C204.24 183.15 204 181.85 204 180.46C204 179.07 204.24 177.78 204.72 176.57C205.2 175.37 205.86 174.34 206.7 173.5C207.54 172.65 208.55 171.99 209.74 171.51C210.93 171.03 212.2 170.79 213.56 170.79L213.57 170.77Z" fill="white"/>
        <path d="M243.4 189.85H230.5V171.06H232.82V187.61H243.4V189.85Z" fill="white"/>
        <path d="M266.56 182.48C266.56 183.73 266.36 184.85 265.97 185.83C265.57 186.81 265.03 187.61 264.33 188.23C263.63 188.85 262.82 189.32 261.9 189.64C260.98 189.96 259.98 190.12 258.9 190.12C257.82 190.12 256.82 189.96 255.9 189.64C254.98 189.32 254.17 188.85 253.47 188.23C252.77 187.61 252.22 186.81 251.83 185.83C251.44 184.85 251.24 183.73 251.24 182.48V171.06H253.56V182.31C253.56 184.16 254.04 185.55 255.01 186.47C255.98 187.39 257.27 187.85 258.9 187.85C260.53 187.85 261.82 187.39 262.78 186.47C263.74 185.55 264.22 184.16 264.22 182.3V171.05H266.56V182.47V182.48Z" fill="white"/>
        <path d="M283.98 171.05C284.98 171.05 285.88 171.14 286.68 171.33C287.48 171.52 288.19 171.8 288.8 172.19C289.41 172.58 289.88 173.09 290.21 173.75C290.54 174.4 290.7 175.17 290.7 176.05C290.7 177.05 290.46 177.91 289.99 178.63C289.52 179.35 288.87 179.86 288.06 180.17C288.98 180.51 289.72 181.06 290.27 181.81C290.82 182.56 291.1 183.49 291.1 184.6C291.1 186.37 290.51 187.69 289.32 188.55C288.13 189.41 286.47 189.85 284.34 189.85H276.82V171.06H283.97L283.98 171.05ZM279.15 173.26V179.22H283.91C284.57 179.22 285.14 179.18 285.63 179.09C286.12 179 286.57 178.85 286.99 178.64C287.41 178.43 287.73 178.11 287.95 177.71C288.17 177.3 288.28 176.8 288.28 176.21C288.28 175.75 288.2 175.34 288.05 174.99C287.9 174.64 287.69 174.36 287.44 174.14C287.19 173.92 286.87 173.74 286.48 173.61C286.1 173.48 285.7 173.38 285.29 173.33C284.88 173.28 284.41 173.26 283.89 173.26H279.16H279.15ZM279.15 181.42V187.62H284.24C284.94 187.62 285.55 187.57 286.07 187.47C286.59 187.37 287.05 187.21 287.45 186.97C287.85 186.74 288.15 186.41 288.36 186C288.57 185.58 288.67 185.08 288.67 184.49C288.67 183.35 288.29 182.56 287.54 182.1C286.78 181.64 285.69 181.42 284.24 181.42H279.15Z" fill="white"/>
    </g>
    <defs>
        <clipPath id="clip0_5001_1046">
            <rect width="313.43" height="206.31" fill="white" transform="translate(0 0.550049)"/>
        </clipPath>
    </defs>
</svg>
