<svg width="314" height="207" viewBox="0 0 314 207" fill="none" xmlns="http://www.w3.org/2000/svg">
    <g clip-path="url(#clip0_5001_889)">
        <path d="M39.68 155.01H14.85C7.11 155.01 3.87 151.2 3.87 143.45V73.22L0 66.11H23.58L19.71 73.22V137.23C19.71 140.66 21.33 142.94 24.83 142.94H30.2C33.69 142.94 35.32 140.65 35.32 137.23V73.22L31.45 66.11H54.54L50.67 73.22V143.45C50.67 151.2 47.55 155.01 39.69 155.01H39.68Z" fill="#182A3A"/>
        <path d="M66.13 66.11H92.33L90.71 73.22L103.44 119.32V73.22L99.57 66.11H121.78L117.91 73.22V155.01H102.19L84.72 94.17V147.89L88.46 155H66.12L69.99 147.89V73.21L66.12 66.1L66.13 66.11Z" fill="#182A3A"/>
        <path d="M262.39 66.11H302.57C310.31 66.11 313.43 69.92 313.43 77.67V143.46C313.43 151.21 310.31 155.02 302.57 155.02H262.39L266.26 147.91V73.23L262.39 66.12V66.11ZM290.96 78.18H281.98V142.95H290.96C295.58 142.95 297.7 139.9 297.7 135.46V85.67C297.7 81.23 295.58 78.18 290.96 78.18Z" fill="#182A3A"/>
        <path d="M221.47 142.95V116.66H234.44L241.68 119.96V101.16L234.44 104.47H221.47V88.99H205.74V147.9L201.88 155.01H248.92V136.09L235.82 142.95H221.47Z" fill="#182A3A"/>
        <path d="M201.88 66.11L205.74 73.22V78.26H221.47V78.18H235.82L248.92 85.03V66.11H201.88Z" fill="#182A3A"/>
        <path d="M15.26 27.45C15.26 26.05 14.54 25.11 13.16 25.11H10.71C9.28 25.11 8.61 26.05 8.61 27.45V49.3C8.61 50.7 9.27 51.64 10.71 51.64H13.16C14.54 51.64 15.26 50.7 15.26 49.3V42.54L21.5 39.06V51.86C21.5 55.03 20.22 56.59 17 56.59H6.62C3.45 56.59 2.17 55.03 2.17 51.86V24.91C2.17 21.74 3.45 20.18 6.62 20.18H17C20.22 20.18 21.5 21.74 21.5 24.91V32.97L15.26 36.46V27.46V27.45Z" fill="#182A3A"/>
        <path d="M51.1 20.16C54.32 20.16 55.6 21.72 55.6 24.89V51.84C55.6 55.01 54.32 56.57 51.1 56.57H40.52C37.35 56.57 36.07 55.01 36.07 51.84V24.89C36.07 21.72 37.35 20.16 40.52 20.16H51.1ZM47.06 25.1H44.61C43.18 25.1 42.51 26.04 42.51 27.44V49.29C42.51 50.69 43.17 51.63 44.61 51.63H47.06C48.44 51.63 49.16 50.69 49.16 49.29V27.44C49.16 26.04 48.44 25.1 47.06 25.1Z" fill="#182A3A"/>
        <path d="M70.98 53.67V23.08L69.4 20.17H79.06L77.42 23.08V51.64H82.28L87.7 48.83V56.58H69.4L70.98 53.67Z" fill="#182A3A"/>
        <path d="M115.65 56.58H105.48C102.31 56.58 100.98 55.02 100.98 51.85V23.08L99.4 20.17H109.06L107.47 23.08V49.3C107.47 50.7 108.14 51.64 109.57 51.64H111.77C113.2 51.64 113.87 50.7 113.87 49.3V23.08L112.29 20.17H121.75L120.17 23.08V51.85C120.17 55.02 118.89 56.58 115.67 56.58H115.65Z" fill="#182A3A"/>
        <path d="M152.36 56.58H147.2L141.78 28.96V53.67L143.31 56.58H134.16L135.74 53.67V23.08L134.16 20.17H147.19L146.37 23.08L149.95 43.68L153.53 23.08L152.76 20.17H165.95L164.31 23.08V53.67L165.95 56.58H156.29L157.88 53.67V29.11L152.36 56.58Z" fill="#182A3A"/>
        <path d="M209.5 38.11C212.46 38.32 213.95 39.78 213.95 43.1V51.84C213.95 55.01 212.67 56.57 209.5 56.57H192.84L194.43 53.66V23.07L192.84 20.16H209.15C212.32 20.16 213.65 21.72 213.65 24.89V33.11C213.65 36.34 212.27 37.79 209.51 38.1L209.5 38.11ZM200.86 35.66H204.59C206.43 35.66 207.3 34.41 207.3 32.59V28.17C207.3 26.35 206.43 25.1 204.59 25.1H200.86V35.66ZM207.51 43.62C207.51 41.8 206.64 40.55 204.75 40.55H200.86V51.63H204.75C206.64 51.63 207.51 50.38 207.51 48.56V43.62Z" fill="#182A3A"/>
        <path d="M243.34 56.58H233.17C230 56.58 228.67 55.02 228.67 51.85V23.08L227.09 20.17H236.75L235.16 23.08V49.3C235.16 50.7 235.83 51.64 237.26 51.64H239.46C240.89 51.64 241.56 50.7 241.56 49.3V23.08L239.98 20.17H249.44L247.86 23.08V51.85C247.86 55.02 246.58 56.58 243.36 56.58H243.34Z" fill="#182A3A"/>
        <path d="M273.19 25.11H271.25C269.82 25.11 269.15 26.05 269.15 27.45V30.41C269.15 32.33 269.56 33.06 271.19 33.95L279.42 38.53C281.21 39.52 281.98 41.08 281.98 43.16V51.85C281.98 55.02 280.7 56.58 277.48 56.58H267C263.78 56.58 262.55 55.02 262.55 51.85V41.6L268.79 45.03V49.3C268.79 50.7 269.51 51.64 270.89 51.64H273.44C274.82 51.64 275.49 50.7 275.49 49.3V45.97C275.49 44.05 275.08 43.32 273.5 42.43L265.22 37.9C263.43 36.91 262.72 35.35 262.72 33.27V24.89C262.72 21.72 264 20.16 267.17 20.16H277.04C280.26 20.16 281.54 21.72 281.54 24.89V34.46L275.3 31.03V27.44C275.3 26.04 274.64 25.1 273.2 25.1L273.19 25.11Z" fill="#182A3A"/>
        <path d="M137.87 78.26H153.59V73.22L157.59 66.11H134L137.87 73.22V78.26Z" fill="#182A3A"/>
        <path d="M153.59 88.99H137.87V147.9L134 155.01H157.59L153.59 147.9V88.99Z" fill="#182A3A"/>
        <path d="M179.03 17.37H181.65C181.66 13.33 184.3 6.68 184.3 6.68C184.32 0.73 179.09 0 179.09 0C179.09 0 173.85 0.7 173.83 6.65C173.83 6.65 176.43 13.32 176.41 17.37H179.03Z" fill="#979EA3"/>
        <path d="M179.05 19.86H181.68C181.68 19.86 183.84 49.52 183 78.26H178.87L174.74 78.23C174.08 49.48 176.43 19.84 176.43 19.84H179.06L179.05 19.86Z" fill="#904F69"/>
        <path d="M170.12 107.17L174.22 107.29L174.76 206.31H182.92L183.56 107.32L187.66 107.23C188.54 107.21 189.32 106.65 189.63 105.83C189.86 105.22 189.79 104.54 189.46 103.98C186.38 98.71 185.73 89.04 185.73 89.04L178.98 89.02H178.92L172.17 89C172.17 89 171.46 98.66 168.34 103.91C168.01 104.47 167.93 105.15 168.16 105.76C168.46 106.59 169.24 107.15 170.12 107.17Z" fill="#979EA3"/>
        <path d="M226.79 80.06C225.99 80.06 225.26 80.33 224.66 80.77L134.54 80.64C133.98 80.28 133.32 80.06 132.61 80.06C130.64 80.06 129.04 81.65 129.03 83.62C129.03 85.59 130.62 87.19 132.59 87.2C133.39 87.2 134.11 86.94 134.71 86.5L224.86 86.63C225.41 86.99 226.07 87.2 226.78 87.2C228.75 87.2 230.35 85.61 230.36 83.64C230.36 81.67 228.77 80.07 226.8 80.06H226.79Z" fill="#979EA3"/>
        <path d="M14.98 180.95H4.95V189.3H2.63V170.51H15.51V172.75H4.95V178.72H14.99V180.95H14.98Z" fill="#182A3A"/>
        <path d="M38.1 189.3H24.99V170.51H37.97V172.72H27.31V178.72H37.62V180.95H27.31V187.08H38.1V189.29V189.3Z" fill="#182A3A"/>
        <path d="M63.7 189.31H61.6L50.44 174.54V189.29H48.11V170.48H50.21L61.38 185.25V170.5H63.7V189.31Z" fill="#182A3A"/>
        <path d="M82.75 170.22C84.37 170.22 85.85 170.57 87.2 171.26C88.55 171.95 89.58 172.9 90.31 174.11L88.37 175.44C87.75 174.51 86.96 173.78 85.99 173.27C85.02 172.76 83.94 172.49 82.75 172.49C80.69 172.49 78.99 173.18 77.64 174.56C76.29 175.94 75.61 177.72 75.61 179.9C75.61 182.08 76.29 183.86 77.64 185.24C78.99 186.62 80.69 187.31 82.75 187.31C83.93 187.31 85 187.05 85.97 186.54C86.94 186.03 87.73 185.3 88.35 184.37L90.25 185.78C89.48 186.96 88.43 187.89 87.1 188.57C85.78 189.25 84.32 189.58 82.74 189.58C81.38 189.58 80.1 189.34 78.92 188.86C77.74 188.38 76.72 187.71 75.88 186.87C75.04 186.03 74.38 185 73.9 183.8C73.42 182.6 73.18 181.3 73.18 179.91C73.18 178.52 73.42 177.23 73.9 176.02C74.38 174.82 75.04 173.79 75.88 172.95C76.72 172.1 77.73 171.44 78.92 170.96C80.11 170.48 81.38 170.24 82.74 170.24L82.75 170.22Z" fill="#182A3A"/>
        <path d="M102.01 189.3H99.69V170.51H102.01V189.3Z" fill="#182A3A"/>
        <path d="M128.13 189.31H126.03L114.87 174.54V189.29H112.54V170.48H114.64L125.81 185.25V170.5H128.13V189.31Z" fill="#182A3A"/>
        <path d="M147.19 170.22C148.65 170.22 149.99 170.49 151.21 171.04C152.43 171.59 153.47 172.35 154.34 173.34L152.64 175.02C151.99 174.22 151.2 173.6 150.26 173.16C149.32 172.72 148.3 172.5 147.19 172.5C145.13 172.5 143.43 173.19 142.08 174.57C140.73 175.95 140.05 177.73 140.05 179.91C140.05 180.99 140.23 182 140.6 182.92C140.97 183.85 141.46 184.63 142.08 185.27C142.7 185.91 143.45 186.41 144.31 186.77C145.17 187.13 146.09 187.31 147.08 187.31C148.95 187.31 150.45 186.79 151.58 185.75C152.71 184.71 153.36 183.26 153.53 181.41H147.99V179.21H156.05C156.07 179.48 156.08 179.68 156.08 179.8C156.08 181.63 155.72 183.27 155.01 184.75C154.3 186.22 153.25 187.39 151.88 188.27C150.5 189.14 148.91 189.58 147.09 189.58C146.12 189.58 145.18 189.44 144.25 189.17C143.33 188.9 142.47 188.49 141.66 187.94C140.86 187.39 140.16 186.73 139.56 185.97C138.96 185.21 138.49 184.31 138.14 183.27C137.8 182.23 137.63 181.11 137.63 179.92C137.63 178.53 137.87 177.24 138.36 176.03C138.84 174.83 139.51 173.8 140.35 172.96C141.19 172.11 142.21 171.45 143.39 170.97C144.57 170.49 145.84 170.25 147.2 170.25L147.19 170.22Z" fill="#182A3A"/>
        <path d="M213.57 170.22C215.19 170.22 216.67 170.57 218.02 171.26C219.37 171.95 220.4 172.9 221.13 174.11L219.19 175.44C218.57 174.51 217.78 173.78 216.81 173.27C215.84 172.76 214.76 172.49 213.57 172.49C211.51 172.49 209.81 173.18 208.46 174.56C207.11 175.94 206.43 177.72 206.43 179.9C206.43 182.08 207.11 183.86 208.46 185.24C209.81 186.62 211.51 187.31 213.57 187.31C214.75 187.31 215.82 187.05 216.79 186.54C217.76 186.03 218.55 185.3 219.17 184.37L221.07 185.78C220.3 186.96 219.25 187.89 217.92 188.57C216.6 189.25 215.14 189.58 213.56 189.58C212.2 189.58 210.92 189.34 209.74 188.86C208.56 188.38 207.54 187.71 206.7 186.87C205.86 186.03 205.2 185 204.72 183.8C204.24 182.6 204 181.3 204 179.91C204 178.52 204.24 177.23 204.72 176.02C205.2 174.82 205.86 173.79 206.7 172.95C207.54 172.1 208.55 171.44 209.74 170.96C210.93 170.48 212.2 170.24 213.56 170.24L213.57 170.22Z" fill="#182A3A"/>
        <path d="M243.4 189.3H230.5V170.51H232.82V187.06H243.4V189.3Z" fill="#182A3A"/>
        <path d="M266.56 181.93C266.56 183.18 266.36 184.3 265.97 185.28C265.57 186.26 265.03 187.06 264.33 187.68C263.63 188.3 262.82 188.77 261.9 189.09C260.98 189.41 259.98 189.57 258.9 189.57C257.82 189.57 256.82 189.41 255.9 189.09C254.98 188.77 254.17 188.3 253.47 187.68C252.77 187.06 252.22 186.26 251.83 185.28C251.44 184.3 251.24 183.18 251.24 181.93V170.51H253.56V181.76C253.56 183.61 254.04 185 255.01 185.92C255.98 186.84 257.27 187.3 258.9 187.3C260.53 187.3 261.82 186.84 262.78 185.92C263.74 185 264.22 183.61 264.22 181.75V170.5H266.56V181.92V181.93Z" fill="#182A3A"/>
        <path d="M283.98 170.5C284.98 170.5 285.88 170.59 286.68 170.78C287.48 170.97 288.19 171.25 288.8 171.64C289.41 172.03 289.88 172.54 290.21 173.2C290.54 173.85 290.7 174.62 290.7 175.5C290.7 176.5 290.46 177.36 289.99 178.08C289.52 178.8 288.87 179.31 288.06 179.62C288.98 179.96 289.72 180.51 290.27 181.26C290.82 182.01 291.1 182.94 291.1 184.05C291.1 185.82 290.51 187.14 289.32 188C288.13 188.86 286.47 189.3 284.34 189.3H276.82V170.51H283.97L283.98 170.5ZM279.15 172.71V178.67H283.91C284.57 178.67 285.14 178.63 285.63 178.54C286.12 178.45 286.57 178.3 286.99 178.09C287.41 177.88 287.73 177.56 287.95 177.16C288.17 176.75 288.28 176.25 288.28 175.66C288.28 175.2 288.2 174.79 288.05 174.44C287.9 174.09 287.69 173.81 287.44 173.59C287.19 173.37 286.87 173.19 286.48 173.06C286.1 172.93 285.7 172.83 285.29 172.78C284.88 172.73 284.41 172.71 283.89 172.71H279.16H279.15ZM279.15 180.87V187.07H284.24C284.94 187.07 285.55 187.02 286.07 186.92C286.59 186.82 287.05 186.66 287.45 186.42C287.85 186.19 288.15 185.86 288.36 185.45C288.57 185.03 288.67 184.53 288.67 183.94C288.67 182.8 288.29 182.01 287.54 181.55C286.78 181.09 285.69 180.87 284.24 180.87H279.15Z" fill="#182A3A"/>
    </g>
    <defs>
        <clipPath id="clip0_5001_889">
            <rect width="313.43" height="206.31" fill="white"/>
        </clipPath>
    </defs>
</svg>