<svg width="208" height="208" viewBox="0 0 208 208" fill="none" xmlns="http://www.w3.org/2000/svg">
    <g clip-path="url(#clip0_5001_1201)">
        <path d="M66.61 92.31C65.37 92.28 64.23 93 63.71 94.13C63.07 95.51 63.51 97.15 64.76 98.01C66.6 99.26 70.76 100.08 74.28 99.67C81.17 98.87 85.33 94.91 87.44 92.63C89.79 90.08 92.85 85.44 99.03 86.51C103.82 87.34 104.78 89.67 104.78 89.67C104.78 89.67 108.86 88.24 109.32 84.67C109.78 81.1 99.67 77.41 91.39 82.64C84.91 86.73 80.2 90.28 75.41 91.51C72.35 92.29 68.79 92.37 66.62 92.32L66.61 92.31Z" fill="#182A3A"/>
        <path d="M62.46 127.8C63.09 137.09 55.88 139.28 55.88 139.28V150.43C55.88 150.43 61.19 152.24 62.1 156.1C63.01 159.96 61.42 160.86 61.65 163.24C61.88 165.62 72.31 164.15 72.31 164.15C67.32 151.22 76.05 138.49 76.05 138.49C67.43 137.21 62.46 127.79 62.46 127.79V127.8Z" fill="#182A3A"/>
        <path d="M103.58 0C46.37 0 0 46.37 0 103.58C0 160.79 46.37 207.16 103.58 207.16C160.79 207.16 207.16 160.79 207.16 103.58C207.16 46.37 160.78 0 103.58 0ZM10.56 103.58C10.56 73.95 24.41 47.56 45.99 30.53L44.2 88.85C42.68 89.3 41.37 89.88 40.28 90.5C38.54 91.48 38.26 93.92 39.82 95.18C43.7 98.32 44.65 105.13 44.65 105.13H19.49C18.85 104.2 17.78 103.59 16.56 103.59C14.6 103.59 13.01 105.18 13.01 107.14C13.01 109.1 14.6 110.69 16.56 110.69C17.66 110.69 18.64 110.19 19.29 109.4H44.65V112.59C44.65 112.59 44.72 112.59 44.76 112.59C43.96 112.67 43.13 112.9 42.32 113.33C36.83 116.27 39.67 122.15 39.67 122.15C39.67 122.15 34.23 127.34 40.01 131.9C40.01 131.9 37.22 137.49 44.64 138.56V152.88C42.96 153.91 42.21 155.17 42.21 155.17C44.4 155.72 46.25 156.28 47.82 156.85C47.88 156.87 47.95 156.9 48.01 156.92C48.16 156.98 48.3 157.03 48.45 157.09C51.37 158.22 53.34 159.38 53.7 159.6C55.6 160.8 56.12 161.65 56.12 161.65C56.12 161.65 43.38 156.16 38.28 157.58C34.93 158.51 32.2 162.97 32.1 163.13C18.64 147 10.54 126.25 10.54 103.6L10.56 103.58ZM36.18 167.68C35.55 167.01 34.92 166.34 34.31 165.66C34.92 166.34 35.55 167.02 36.18 167.68ZM149.93 184.24C147.57 185.6 145.15 186.85 142.66 188C150.88 180.45 158.93 171.83 162.17 164.6C162.17 164.6 158.27 173.63 149.92 184.23L149.93 184.24ZM173.67 164.72C174.57 163.69 175.43 162.64 176.28 161.57C175.43 162.64 174.56 163.69 173.67 164.72ZM184.18 149.98C184.48 149.46 184.79 148.91 185.1 148.35C184.8 148.9 184.5 149.44 184.18 149.98ZM182.93 103.15C165.14 151.66 123.96 179.48 71.04 183.57C66.33 183.92 61.64 184.12 56.94 184.06C65.84 189.22 75.66 192.97 86.11 194.95C105.12 190.48 144.78 176.4 162.35 150.65C162.35 150.65 146.83 179.67 106.54 196.54C105.55 196.57 104.56 196.59 103.57 196.59C79.21 196.59 57.05 187.22 40.47 171.9C44.05 175.2 47.89 178.23 51.95 180.94C58.21 181.38 64.6 181.31 70.85 180.94C123.44 177.74 164.48 150.64 182.82 102.77C174.9 73.9 158.7 60.53 158.7 60.53C158.46 60.27 158.32 60.12 158.32 60.12C156.92 65.05 151.12 69.24 151.12 69.24C155.38 62.62 158.77 50.79 154.35 44.39C149.94 37.99 145.68 36.74 137 33.44C131.21 31.23 127.15 21.83 127.15 21.83C125.75 26.98 129.65 30.87 129.65 30.87C129.65 30.87 127.79 29.96 124.5 27.56C120.97 24.99 120.97 20.43 120.97 20.43C120.97 20.43 118.84 23.66 121.04 27.93C124.36 34.35 136.99 34.84 135.6 42.04C134.2 49.24 125.82 49.61 125.82 49.61C116.89 45.12 108.07 47.55 103.93 49.21C102.43 49.81 101.19 50.91 100.38 52.3C99.22 54.3 97.41 57.29 96.2 58.65C94.58 60.46 84.41 61.64 81.39 61.95C80.88 62 80.52 62.46 80.56 62.97C80.72 64.89 81.59 66.16 82.19 66.81C82.47 67.12 82.92 67.21 83.29 67.01C84.59 66.34 86.57 65.79 86.57 65.79C83.85 69.83 82.6 69.02 81.42 70.64C80.66 71.68 80.52 73.72 80.51 75.04C80.51 75.91 80.91 76.73 81.63 77.21C83.86 78.7 87.45 79.53 87.45 79.53C88.04 81.15 89.73 82.03 89.73 82.03C90.98 75.93 97.33 75.44 100.83 75.86C105.17 76.37 111.56 78.36 111.19 84.53C110.85 90.25 104.06 92.4 99.36 92.62C94.66 92.84 94.14 88.65 94.14 88.65C92.74 90.05 92.96 92.4 92.96 92.4C88.4 97.4 93.33 104.38 93.33 104.38C93.33 104.38 95.98 99.6 99.43 101.73C102.88 103.86 100.75 108.49 100.75 108.49C101.93 109.59 108.76 109.3 108.76 109.3C106.26 110.7 100.16 110.33 100.16 110.33L99.57 111.73C105.74 112.47 110.45 110.7 110.45 110.7C109.42 114.96 103.54 117.02 103.54 117.02C106.94 118.72 111.19 119.63 114.85 120.13C111.41 121.27 108.22 121.14 105.67 120.62C102.08 119.68 100 118.5 100 118.5C97.94 119.53 95.3 120.26 95.3 120.26C106.08 124.33 114.88 124.64 121.25 123.8C111.86 129.02 98.44 124.18 98.44 124.18C68.45 138.88 72.96 158.46 72.96 158.46C76.88 155.3 80.8 154.36 80.8 154.36C77.86 156.91 77.86 162.99 77.86 162.99C89.82 163.19 108.05 155.93 108.05 155.93C93.15 167.89 64.65 167.98 61.49 165.91C59.43 164.56 59.01 162.24 59.86 160.5C60.86 158.43 60.32 154.86 54.83 152.7C54.45 152.55 54.1 152.45 53.75 152.33V137.82C53.75 137.82 53.7 137.84 53.67 137.84C56.89 136.72 59.23 134.64 59.88 131.82C59.88 131.82 55.26 135.57 49.02 132.91C49.02 132.91 57.14 132.99 59.44 129.56C59.44 129.56 54.82 127.65 53.75 124.17C53.75 124.17 47.87 124.66 45.57 123.14C45.57 123.14 50.62 122.89 52.43 122.11C52.43 122.11 51.99 119.9 52.87 118.43C52.87 118.43 55.12 126.72 60.22 127.57V125.82C60.22 125.46 60.34 125.12 60.57 124.85C61.08 124.25 62.05 122.98 62.67 121.32C63.55 118.97 64.14 118.77 63.45 115.98C62.51 112.15 59.28 110.44 56.5 111.56C55.45 111.98 54.65 112.43 53.74 113.15V109.36H78.86C79.51 110.15 80.49 110.65 81.59 110.65C83.55 110.65 85.14 109.06 85.14 107.1C85.14 105.14 83.55 103.55 81.59 103.55C80.37 103.55 79.3 104.16 78.66 105.09H53.72C53.72 105.09 54.67 98.28 58.55 95.14C60.11 93.88 59.83 91.44 58.09 90.46C57 89.85 55.7 89.26 54.18 88.82L52.39 25.87C52.39 25.87 52.35 25.89 52.3 25.91C66.99 16.2 84.6 10.54 103.53 10.54C154.9 10.54 196.55 52.19 196.55 103.56C196.55 118.51 193.02 132.64 186.74 145.16C187.8 128.61 186.01 114.65 182.89 103.13L182.93 103.15ZM38.53 170.05C39.16 170.67 39.8 171.28 40.45 171.87C39.8 171.27 39.16 170.66 38.53 170.05ZM147.79 78.68C147.79 78.68 158.52 101.83 144.4 113.69C144.4 113.69 147.79 108.8 148.54 103.15C148.54 103.15 144.96 111.62 133.29 113.69C133.29 113.69 144.77 109.17 147.78 95.43C149.84 86.01 147.78 78.68 147.78 78.68H147.79ZM100.05 69.24C105.2 69.24 109.31 73.14 109.31 73.14C109.31 73.14 99.53 68.8 89.54 73.14C89.54 73.14 92.85 69.24 100.05 69.24ZM87.48 70.34C87.48 70.34 93.8 60.86 102.7 65.93C102.7 65.93 94.43 65.64 87.48 70.34ZM107.36 64.93C107 64.65 106.79 64.22 106.8 63.76C106.84 62.73 107.09 61.88 107.36 61.24C107.72 60.38 108.6 59.86 109.53 59.96C112.4 60.29 116.66 61.74 116.66 62.99C116.66 64.46 114.97 65.19 111.88 65.93C109.75 66.44 108.15 65.54 107.36 64.93Z" fill="#182A3A"/>
    </g>
    <defs>
        <clipPath id="clip0_5001_1201">
            <rect width="207.15" height="207.15" fill="white"/>
        </clipPath>
    </defs>
</svg>
