<svg xmlns="http://www.w3.org/2000/svg" width="208" height="208" viewBox="0 0 208 208" fill="none">
    <g clip-path="url(#clip0_5001_1152)">
        <path d="M196.59 103.58C196.59 52.21 154.94 10.56 103.57 10.56C85.6 10.56 68.83 15.67 54.61 24.49C53.87 24.95 53.14 25.43 52.42 25.91C51.78 26.33 51.15 26.76 50.52 27.2C49.83 27.68 49.13 28.17 48.45 28.67C47.95 29.04 47.47 29.41 46.98 29.79C46.4 30.24 45.82 30.69 45.25 31.15C44.77 31.54 44.28 31.93 43.8 32.33C43.64 32.46 43.48 32.59 43.32 32.73V32.75C23.28 49.8 10.56 75.2 10.56 103.58C10.56 104.26 10.6 104.93 10.61 105.61C10.61 105.64 10.59 105.66 10.59 105.69C10.6 106.26 10.64 106.83 10.66 107.39C10.68 107.86 10.69 108.33 10.72 108.8C10.72 108.88 10.72 108.97 10.73 109.05C10.73 109.05 10.73 109.07 10.74 109.08C11.88 128.61 19.05 146.51 30.41 160.97C30.41 160.97 30.4 160.99 30.39 160.99C30.79 161.5 31.2 162 31.62 162.51C31.71 162.62 31.79 162.72 31.88 162.83C32.72 163.84 33.58 164.83 34.46 165.81C34.62 165.99 34.78 166.17 34.95 166.35C35.82 167.3 36.71 168.23 37.62 169.15C37.78 169.31 37.95 169.47 38.11 169.63C39.06 170.57 40.02 171.49 41 172.39C41.06 172.44 41.12 172.49 41.17 172.54C42.14 173.42 43.12 174.27 44.13 175.1C44.28 175.22 44.42 175.34 44.57 175.47C45.57 176.29 46.6 177.09 47.63 177.88C47.83 178.03 48.03 178.18 48.23 178.33C49.27 179.1 50.33 179.85 51.4 180.58C51.57 180.7 51.74 180.81 51.91 180.92C53.02 181.66 54.14 182.38 55.28 183.08C55.31 183.1 55.34 183.12 55.37 183.14C56.52 183.84 57.7 184.51 58.88 185.16C59.08 185.27 59.27 185.38 59.47 185.48C60.61 186.1 61.77 186.69 62.94 187.26C63.17 187.37 63.39 187.48 63.62 187.59C64.81 188.16 66.01 188.71 67.23 189.22C67.38 189.28 67.53 189.34 67.69 189.41C68.9 189.91 70.11 190.4 71.34 190.85C71.46 190.89 71.57 190.94 71.69 190.98C72.95 191.44 74.23 191.87 75.51 192.27C75.74 192.34 75.98 192.42 76.22 192.49C77.48 192.88 78.75 193.24 80.04 193.57C80.27 193.63 80.51 193.69 80.75 193.75C82.08 194.08 83.41 194.4 84.76 194.68C84.86 194.7 84.97 194.72 85.07 194.74C86.39 195.01 87.71 195.24 89.05 195.45C89.23 195.48 89.42 195.51 89.6 195.54C90.95 195.74 92.3 195.91 93.67 196.06C93.93 196.09 94.19 196.12 94.46 196.14C95.82 196.27 97.18 196.38 98.56 196.45C98.79 196.46 99.01 196.47 99.24 196.48C100.68 196.55 102.13 196.59 103.59 196.59C105.01 196.59 106.43 196.55 107.84 196.48C108.2 196.46 108.56 196.45 108.92 196.42C110.26 196.34 111.6 196.25 112.92 196.12C112.99 196.12 113.06 196.11 113.13 196.1C114.51 195.96 115.88 195.78 117.25 195.58C117.6 195.53 117.95 195.47 118.3 195.42C119.55 195.22 120.8 195 122.03 194.75C122.15 194.73 122.27 194.71 122.39 194.68C123.72 194.41 125.04 194.1 126.36 193.76C126.7 193.67 127.04 193.59 127.38 193.5C128.55 193.19 129.71 192.86 130.86 192.51C131.02 192.46 131.18 192.42 131.34 192.37C132.62 191.97 133.88 191.54 135.13 191.09C135.46 190.97 135.78 190.85 136.11 190.73C137.2 190.32 138.28 189.9 139.35 189.45C139.54 189.37 139.73 189.3 139.92 189.22C141.13 188.7 142.33 188.16 143.52 187.59C143.83 187.44 144.14 187.29 144.45 187.14C145.46 186.65 146.46 186.14 147.44 185.61C147.65 185.5 147.87 185.39 148.08 185.27C149.22 184.65 150.35 184 151.46 183.33C151.76 183.15 152.05 182.97 152.34 182.79C153.27 182.22 154.18 181.63 155.09 181.03C155.32 180.88 155.55 180.73 155.77 180.58C156.83 179.86 157.88 179.11 158.91 178.34C159.19 178.13 159.46 177.92 159.74 177.71C160.59 177.07 161.42 176.41 162.25 175.74C162.48 175.55 162.72 175.37 162.95 175.18C163.93 174.36 164.9 173.53 165.85 172.67C166.11 172.44 166.36 172.2 166.61 171.97C167.38 171.26 168.14 170.54 168.88 169.8C169.11 169.57 169.34 169.35 169.57 169.12C170.47 168.22 171.34 167.3 172.2 166.36C172.43 166.11 172.65 165.85 172.88 165.6C173.57 164.83 174.25 164.05 174.91 163.25C175.13 162.99 175.35 162.73 175.57 162.47C176.37 161.49 177.16 160.49 177.92 159.48C178.12 159.21 178.32 158.94 178.51 158.67C179.12 157.84 179.72 157 180.31 156.14C180.51 155.85 180.72 155.56 180.91 155.26C181.62 154.2 182.3 153.13 182.97 152.05C183.14 151.77 183.3 151.49 183.47 151.22C183.77 150.73 184.07 150.23 184.35 149.73C184.35 149.7 184.37 149.67 184.37 149.64C190.09 139.62 194.01 128.45 195.67 116.55C195.67 116.55 195.68 116.53 195.69 116.52C195.83 115.54 195.95 114.54 196.05 113.55C196.09 113.17 196.13 112.78 196.16 112.39C196.19 112.02 196.24 111.66 196.27 111.29C196.27 111.29 196.26 111.28 196.25 111.27C196.46 108.73 196.59 106.16 196.59 103.56V103.58ZM42.04 151.53C40.71 152.63 40.05 153.7 39.97 153.85C39.81 154.13 39.7 154.43 39.65 154.75C38.9 154.79 38.22 154.89 37.6 155.06C35.42 155.67 33.55 157.26 32.19 158.74C22.1 145.71 15.48 129.87 13.76 112.61C14.6 113.04 15.55 113.29 16.56 113.29C17.94 113.29 19.26 112.83 20.33 112H39.59C36.21 114.66 35.91 118.65 36.72 121.61C35.78 122.9 34.65 125.01 34.77 127.52C34.84 128.89 35.31 130.8 37.06 132.69C36.82 133.92 36.78 135.57 37.63 137.18C38.48 138.8 39.96 139.96 42.06 140.63V151.54L42.04 151.53ZM41.65 86.97C40.73 87.33 39.84 87.75 39 88.23C37.41 89.13 36.36 90.75 36.21 92.57C36.06 94.35 36.8 96.08 38.18 97.2C39.7 98.43 40.72 100.63 41.34 102.52H20.63C19.52 101.54 18.07 100.98 16.56 100.98C15.38 100.98 14.29 101.33 13.35 101.9C13.83 76 25.25 52.72 43.2 36.54L41.66 86.96L41.65 86.97ZM193.52 110.79C192.07 123.26 189.26 132.93 189.26 132.93C189.26 97.34 174.3 74.42 165.87 64.33C162.6 60.97 160.3 58.43 160.27 58.39C159.81 57.88 159.17 57.58 158.51 57.54C158.53 57.43 158.55 57.32 158.57 57.21C159.63 51.35 158.92 46.41 156.52 42.93C151.96 36.32 147.36 34.58 139.74 31.7C139.17 31.48 138.57 31.26 137.96 31.02C134.07 29.54 130.51 22.98 129.57 20.81C129.16 19.85 128.21 19.24 127.18 19.24C127.12 19.24 127.06 19.24 126.99 19.24C125.89 19.32 124.95 20.09 124.66 21.15C124.46 21.87 124.35 22.57 124.3 23.24C123.64 21.8 123.6 20.43 123.6 20.41C123.6 19.26 122.85 18.26 121.74 17.93C121.5 17.86 121.25 17.82 121 17.82C120.14 17.82 119.31 18.25 118.82 19C117.72 20.67 116.46 24.69 118.75 29.13C120.57 32.65 124.28 34.59 127.55 36.29C132.07 38.65 133.42 39.68 133.06 41.55C132.25 45.74 127.93 46.73 126.31 46.95C122.75 45.29 118.91 44.44 114.87 44.44C109.89 44.44 105.66 45.72 102.98 46.79C100.96 47.6 99.24 49.09 98.14 50.99C96.53 53.77 95.15 55.89 94.34 56.82C93.46 57.39 89.3 58.5 81.13 59.35C79.23 59.55 77.82 61.26 77.98 63.17C78.14 65.07 78.86 66.87 80.04 68.28C79.8 68.51 79.57 68.77 79.33 69.1C78.4 70.38 77.94 72.31 77.92 75.01C77.91 76.78 78.76 78.41 80.2 79.37C81.97 80.55 84.3 81.34 85.69 81.75C85.99 82.2 86.32 82.58 86.65 82.91C82.52 85.6 79.22 87.71 76.06 88.52C73.77 89.1 68.95 89.52 67.11 89.52C66.77 89.52 66.46 89.52 66.17 89.51C66.13 89.51 66.09 89.51 66.05 89.51C63.88 89.51 61.88 90.79 60.97 92.77C59.81 95.27 60.62 98.21 62.88 99.74C64.8 101.04 70.78 103.21 74.19 103.21C74.92 103.21 75.64 103.17 76.32 103.09C82.54 102.37 86.31 97.67 88.6 95.52C87.64 100.7 91.03 105.61 91.22 105.88C91.71 106.57 92.5 106.98 93.35 106.98C93.4 106.98 93.44 106.98 93.49 106.98C94.39 106.93 95.19 106.43 95.63 105.64C96.11 104.79 97.11 103.79 97.66 103.79C97.77 103.79 97.92 103.84 98.09 103.95C99.54 104.85 98.43 107.38 98.42 107.41C98.23 107.82 98.16 108.25 98.19 108.68C98.03 108.87 97.9 109.09 97.8 109.33L97.21 110.73C96.89 111.48 96.95 112.34 97.36 113.05C97.77 113.76 98.49 114.23 99.3 114.33C100.4 114.46 101.53 114.53 102.65 114.53C102.72 114.53 102.79 114.53 102.86 114.53C102.81 114.55 102.76 114.57 102.72 114.58C101.97 114.84 101.4 115.42 101.14 116.14C100.8 115.98 100.42 115.91 100.05 115.91C99.65 115.91 99.25 116 98.89 116.18C97.39 116.93 95.32 117.58 94.65 117.76C93.56 118.06 92.8 119.03 92.75 120.15C92.7 121.28 93.38 122.31 94.43 122.7C94.67 122.79 94.91 122.88 95.14 122.97C89.3 126.06 82.7 130.49 77.74 136.45C66.6 133.96 63.79 124.94 63.79 124.94C64.26 124.2 64.76 123.3 65.14 122.27C65.3 121.84 65.45 121.49 65.6 121.15C66.39 119.32 66.69 118.15 66.01 115.4C65.7 114.12 65.17 112.98 64.48 112.01H77.86C78.93 112.84 80.24 113.3 81.63 113.3C85.02 113.3 87.78 110.54 87.78 107.15C87.78 103.76 85.02 101 81.63 101C80.11 101 78.67 101.56 77.56 102.54H57.07C57.69 100.64 58.71 98.45 60.23 97.22C61.61 96.1 62.35 94.37 62.2 92.59C62.05 90.77 61 89.15 59.41 88.25C58.57 87.78 57.69 87.36 56.77 87L55.08 27.53C69.1 18.56 85.73 13.34 103.57 13.34C153.34 13.34 193.84 53.83 193.84 103.61C193.84 106.04 193.72 108.43 193.53 110.81L193.52 110.79Z" fill="#C8CBCB"/>
        <path d="M158.72 60.54C158.48 60.28 158.34 60.13 158.34 60.13C156.94 65.06 151.14 69.25 151.14 69.25C155.4 62.63 158.79 50.8 154.37 44.4C149.96 38 145.7 36.75 137.02 33.45C131.23 31.24 127.17 21.84 127.17 21.84C125.77 26.99 129.67 30.88 129.67 30.88C129.67 30.88 127.81 29.97 124.52 27.57C120.99 25 120.99 20.44 120.99 20.44C120.99 20.44 118.86 23.67 121.06 27.94C124.38 34.36 137.01 34.85 135.62 42.05C134.22 49.25 125.84 49.62 125.84 49.62C116.91 45.13 108.09 47.56 103.95 49.22C102.45 49.82 101.21 50.92 100.4 52.31C99.24 54.31 97.43 57.3 96.22 58.66C94.6 60.47 84.43 61.65 81.41 61.96C80.9 62.01 80.54 62.47 80.58 62.98C80.74 64.9 81.61 66.17 82.21 66.82C82.49 67.13 82.94 67.22 83.31 67.02C84.61 66.35 86.59 65.8 86.59 65.8C83.87 69.84 82.62 69.03 81.44 70.65C80.68 71.69 80.54 73.73 80.53 75.05C80.53 75.92 80.93 76.74 81.65 77.22C83.88 78.71 87.47 79.54 87.47 79.54C88.06 81.16 89.75 82.04 89.75 82.04C91 75.94 97.35 75.45 100.85 75.87C105.19 76.38 111.58 78.37 111.21 84.54C110.87 90.26 104.08 92.41 99.38 92.63C94.68 92.85 94.16 88.66 94.16 88.66C92.76 90.06 92.98 92.41 92.98 92.41C88.42 97.41 93.35 104.39 93.35 104.39C93.35 104.39 96 99.61 99.45 101.74C102.9 103.87 100.77 108.5 100.77 108.5C101.95 109.6 108.78 109.31 108.78 109.31C106.28 110.71 100.18 110.34 100.18 110.34L99.59 111.74C105.76 112.48 110.47 110.71 110.47 110.71C109.44 114.97 103.56 117.03 103.56 117.03C106.96 118.73 111.21 119.64 114.87 120.14C111.43 121.28 108.24 121.15 105.69 120.63C102.1 119.69 100.02 118.51 100.02 118.51C97.96 119.54 95.32 120.27 95.32 120.27C106.1 124.34 114.9 124.65 121.27 123.81C111.88 129.03 98.46 124.19 98.46 124.19C68.47 138.89 72.98 158.47 72.98 158.47C76.9 155.31 80.82 154.37 80.82 154.37C77.88 156.92 77.88 163 77.88 163C89.84 163.2 108.07 155.94 108.07 155.94C93.17 167.9 64.67 167.99 61.51 165.92C59.45 164.57 59.03 162.25 59.88 160.51C60.88 158.44 60.34 154.87 54.85 152.71C45.73 149.13 42.21 155.16 42.21 155.16C53.97 158.1 56.13 161.63 56.13 161.63C56.13 161.63 43.39 156.14 38.29 157.56C34.89 158.51 32.12 163.1 32.11 163.12C49.17 183.58 74.85 196.6 103.57 196.6C132.29 196.6 159.67 182.71 176.7 161.07C177.15 160.36 181.57 155.4 186.78 145.19C190.53 86.78 158.71 60.55 158.71 60.55L158.72 60.54ZM87.48 70.35C87.48 70.35 93.8 60.87 102.7 65.94C102.7 65.94 94.43 65.65 87.48 70.35ZM89.54 73.14C89.54 73.14 92.85 69.24 100.05 69.24C105.2 69.24 109.31 73.14 109.31 73.14C109.31 73.14 99.53 68.8 89.54 73.14ZM107.37 64.93C107.01 64.65 106.8 64.22 106.81 63.76C106.85 62.73 107.1 61.88 107.37 61.24C107.73 60.38 108.61 59.86 109.54 59.96C112.41 60.29 116.67 61.74 116.67 62.99C116.67 64.46 114.98 65.19 111.89 65.93C109.76 66.44 108.16 65.54 107.37 64.93Z" fill="#182A3A"/>
        <path d="M48.22 178.33C63.69 189.81 82.84 196.6 103.57 196.6C133.24 196.6 159.67 182.71 176.7 161.07C177.15 160.36 181.57 155.4 186.78 145.19C188.31 121.45 183.95 103.03 178.25 89.52C151.68 187.11 48.21 178.33 48.21 178.33H48.22Z" fill="#904F69"/>
        <path d="M103.58 0C46.37 0 0 46.37 0 103.58C0 160.79 46.37 207.16 103.58 207.16C160.79 207.16 207.16 160.79 207.16 103.58C207.16 46.37 160.78 0 103.58 0ZM103.58 196.59C52.21 196.59 10.56 154.94 10.56 103.57C10.56 52.2 52.2 10.56 103.58 10.56C154.96 10.56 196.6 52.21 196.6 103.58C196.6 154.95 154.95 196.6 103.58 196.6V196.59Z" fill="#182A3A"/>
        <path d="M130.61 192.6C134.67 191.37 138.61 189.87 142.41 188.12C163.38 172.48 172.78 150.65 172.78 150.65C165.2 167.56 131.2 192.18 130.61 192.6Z" fill="#C18797"/>
        <path d="M69.9 190.3C76.61 192.91 83.7 194.76 91.07 195.75C148.67 176.12 167.88 138.49 167.88 138.49C137.84 179.95 70.02 190.28 69.91 190.3H69.9Z" fill="#C18797"/>
        <path d="M60.25 127.59V125.84C60.25 125.48 60.37 125.14 60.6 124.87C61.11 124.27 62.08 123 62.7 121.34C63.58 118.99 64.17 118.79 63.48 116C62.54 112.17 59.31 110.46 56.53 111.58C54.81 112.27 53.78 113.01 51.82 114.97C51.82 114.97 46.92 110.83 42.31 113.3C36.82 116.24 39.66 122.12 39.66 122.12C39.66 122.12 34.22 127.31 40 131.87C40 131.87 37.21 137.46 44.63 138.53C52.05 139.61 58.72 136.91 59.89 131.82C59.89 131.82 55.27 135.57 49.03 132.91C49.03 132.91 57.15 132.99 59.45 129.56C59.45 129.56 54.83 127.65 53.76 124.17C53.76 124.17 47.88 124.66 45.58 123.14C45.58 123.14 50.63 122.89 52.44 122.11C52.44 122.11 52 119.9 52.88 118.43C52.88 118.43 55.13 126.72 60.23 127.57L60.25 127.59Z" fill="#182A3A"/>
        <path d="M51.82 114.97C52.58 114.21 53.2 113.64 53.78 113.17V109.38H44.65V112.57C48.44 112.11 51.83 114.97 51.83 114.97H51.82Z" fill="#904F69"/>
        <path d="M44.65 138.54V155.81C49.97 157.25 53.78 159.61 53.78 159.61V137.82C51.18 138.74 47.99 139.02 44.65 138.54Z" fill="#904F69"/>
        <path d="M81.63 103.58C80.41 103.58 79.34 104.19 78.7 105.12H53.76C53.76 105.12 54.71 98.31 58.59 95.17C60.15 93.91 59.87 91.47 58.13 90.49C57.04 89.88 55.74 89.29 54.22 88.85L52.43 25.9C52.43 25.9 49.47 27.21 45.99 30.47L44.2 88.85C42.68 89.3 41.37 89.88 40.28 90.5C38.54 91.48 38.26 93.92 39.82 95.18C43.7 98.32 44.65 105.13 44.65 105.13H19.49C18.85 104.2 17.78 103.59 16.56 103.59C14.6 103.59 13.01 105.18 13.01 107.14C13.01 109.1 14.6 110.69 16.56 110.69C17.66 110.69 18.64 110.19 19.29 109.4H78.9C79.55 110.19 80.53 110.69 81.63 110.69C83.59 110.69 85.18 109.1 85.18 107.14C85.18 105.18 83.59 103.59 81.63 103.59V103.58Z" fill="#485056"/>
        <path d="M104.77 89.66C104.77 89.66 108.85 88.23 109.31 84.66C109.77 81.09 99.66 77.4 91.38 82.63C84.9 86.72 80.19 90.27 75.4 91.5C72.34 92.28 68.78 92.36 66.61 92.31C65.37 92.28 64.23 93 63.71 94.13C63.07 95.51 63.51 97.15 64.76 98.01C66.6 99.26 70.76 100.08 74.28 99.67C81.17 98.87 85.33 94.91 87.44 92.63C89.79 90.08 92.84 85.44 99.03 86.51C103.82 87.34 104.78 89.67 104.78 89.67L104.77 89.66Z" fill="#904F69"/>
        <path d="M133.29 113.69C133.29 113.69 144.77 109.17 147.78 95.43C149.84 86.01 147.78 78.68 147.78 78.68C147.78 78.68 158.51 101.83 144.39 113.69C144.39 113.69 147.78 108.8 148.53 103.15C148.53 103.15 144.95 111.62 133.28 113.69H133.29Z" fill="#C8CBCB"/>
    </g>
    <defs>
        <clipPath id="clip0_5001_1152">
            <rect width="207.15" height="207.15" fill="white"/>
        </clipPath>
    </defs>
</svg>